<?xml version="1.0" encoding="UTF-8" standalone="no"?>
<svg
   xmlns:dc="http://purl.org/dc/elements/1.1/"
   xmlns:cc="http://creativecommons.org/ns#"
   xmlns:rdf="http://www.w3.org/1999/02/22-rdf-syntax-ns#"
   xmlns:svg="http://www.w3.org/2000/svg"
   xmlns="http://www.w3.org/2000/svg"
   xml:space="preserve"
   viewBox="0 0 300 300"
   version="1.1"
   style="enable-background:new 0 0 300 300;"
   id="octopus"><metadata
     id="metadata45"><rdf:RDF><cc:Work
         rdf:about=""><dc:format>image/svg+xml</dc:format><dc:type
           rdf:resource="http://purl.org/dc/dcmitype/StillImage" /><dc:title></dc:title></cc:Work></rdf:RDF></metadata><defs
     id="defs43" /><g
     id="g8"><path
       id="path2"
       style="fill-rule:evenodd;clip-rule:evenodd;fill:#009682;stroke:#009682;stroke-width:8;stroke-linecap:round;stroke-linejoin:round;stroke-miterlimit:10;stroke-opacity:1;fill-opacity:1"
       d="   M58.985,124.888c0,0-29.197,45.689,24.586,41.242c53.782-4.447,18.892-81.756,21.886-95.803   c2.994-14.047,15.823-35.353,54.72-31.968c38.897,3.385,38.176,30.051,38.176,41.754c0,11.703-18.707,66.074-0.626,76.045   c18.081,9.972,73.226,21.348,52.252-30.237l3.485-8.818c0,0,33.603,35.771-1.368,59.919c-34.97,24.148-82.947-13.415-82.947-13.415   S153.657,247.914,200,254c46.343,6.086,54.329-20.349,54.329-25.465c0-5.116,8.931,5.492,8.931,5.492s-13.196,40.699-61.105,35.517   s-71.893-50.107-78.326-96.865c0,0-26.939,22.09-49.127,16.795c-22.187-5.295-50.758-26.521-23.657-71.209L58.985,124.888z" /><circle
       id="circle4"
       style="fill-rule:evenodd;clip-rule:evenodd;fill:#ffffff;stroke:#ffffff;stroke-width:8;stroke-linecap:round;stroke-linejoin:round;stroke-miterlimit:10;stroke-opacity:0;fill-opacity:1"
       r="22"
       cy="92"
       cx="150" /><circle
       id="circle6"
       style="fill-rule:evenodd;clip-rule:evenodd;fill:#009682;stroke:#009682;stroke-width:4;stroke-linecap:round;stroke-linejoin:round;stroke-miterlimit:10;stroke-opacity:1;fill-opacity:1;stroke-dasharray:none"
       r="10"
       cy="92"
       cx="150" /></g><g
     id="g10" /><g
     id="g12" /><g
     id="g14" /><g
     id="g16" /><g
     id="g18" /><g
     id="g20" /><g
     id="g22" /><g
     id="g24" /><g
     id="g26" /><g
     id="g28" /><g
     id="g30" /><g
     id="g32" /><g
     id="g34" /><g
     id="g36" /><g
     id="g38" /></svg>